<svg id="Layer_1" height="512" viewBox="0 0 512 512" width="512" xmlns="http://www.w3.org/2000/svg" data-name="Layer 1"><path d="m95.08 354.32 35.48 45.34h-16.05v52.71l-39-.08v-52.71l-15.91.08z" fill="#5fa8ed"/><path d="m159.02 246.1 35.48 45.34h-16.05v52.71l-38.99-.08v-52.71l-15.92.08z" fill="#5fcda4"/><path d="m431.26 354.32 35.48 45.34-15.92-.08v52.71l-38.99.08v-52.71h-16.05z" fill="#5fa8ed"/><path d="m367.32 246.1 35.48 45.34-15.92-.08v52.71l-39 .08v-52.71h-16.05z" fill="#5fcda4"/><path d="m307.25 160.69c25.55 7.41 43.41 35.7 37.2 61.58a6.978 6.978 0 0 1 -6.81 5.36 6.884 6.884 0 0 1 -4.22-1.44c-10.14-7.74-24.02-14.31-37-18.01z" fill="#b0b5ca"/><path d="m221.5 162.02 10.87 47.62h-.01c-17.41 5.23-36.61 19.08-43.56 26.07a2.28 2.28 0 0 1 -3.83-1.03l-1.26-4.83c-7.41-28.54 9.62-59.19 37.79-67.83z" fill="#b0b5ca"/><path d="m282.66 250.13c2.45 7.79 6.43 29.9-17.41 44.29a2.546 2.546 0 0 1 -2.61-.02c-24.21-14.32-18.41-36.86-15.46-44.39a.97.97 0 0 1 1.84.08c1.45 5.13 5.64 15.74 15.45 16.75 9.91 1.03 14.64-10.94 16.33-16.69a.973.973 0 0 1 1.86-.02z" fill="#f3ce7d"/><path d="m296.17 53.25a195.348 195.348 0 0 0 -30.42-41.89 1.148 1.148 0 0 0 -1.67 0 199.92 199.92 0 0 0 -30.65 42.04c-28.09 52.3-15.4 93.38-15.4 93.38l18.28 80.15a10.193 10.193 0 0 0 9.94 7.94h35.95a10.2 10.2 0 0 0 9.95-7.94l18.27-80.15s13.58-41.16-14.25-93.53z" fill="#6d7486"/><path d="m262.31 227-18.28-80.183s-12.69-41.1 15.4-93.4a189.646 189.646 0 0 1 18.478-27.944c-3.682-4.664-7.719-9.375-12.158-14.108a1.148 1.148 0 0 0 -1.67 0 199.916 199.916 0 0 0 -30.65 42.035c-28.09 52.3-15.4 93.379-15.4 93.379l18.28 80.221a10.251 10.251 0 0 0 9.94 8h26a10.251 10.251 0 0 1 -9.94-8z" fill="#505560"/><path d="m296.17 53.25c-6.78 10.04-18.69 16.26-31.71 16.26a37.685 37.685 0 0 1 -30.84-16.01l-.19-.1a199.92 199.92 0 0 1 30.65-42.04 1.148 1.148 0 0 1 1.67 0 195.348 195.348 0 0 1 30.42 41.89z" fill="#b0b5ca"/><path d="m264.45 90.81a24.82 24.82 0 1 1 -24.8 24.82 24.809 24.809 0 0 1 24.8-24.82z" fill="#adf0e5"/><path d="m265.65 115.63a24.8 24.8 0 0 1 11.8-21.141 24.82 24.82 0 1 0 0 42.282 24.8 24.8 0 0 1 -11.8-21.141z" fill="#93c6bc"/><path d="m259.43 53.4a189.6 189.6 0 0 1 18.478-27.936c-3.682-4.665-7.719-9.371-12.158-14.1a1.148 1.148 0 0 0 -1.67 0 199.92 199.92 0 0 0 -30.65 42.036l.19.1a37.837 37.837 0 0 0 19.019 14.106c1.943-4.623 4.192-9.366 6.791-14.206z" fill="#9298a8"/><g fill="#324d6d"><path d="m75.374 461.3a6 6 0 0 0 -6 6v5.682a6 6 0 0 0 12 0v-5.682a6 6 0 0 0 -6-6z"/><path d="m99.8 350.619a6 6 0 0 0 -9.451 0l-35.479 45.343a6 6 0 0 0 4.726 9.7h.03l9.889-.05v46.678a6 6 0 0 0 5.987 6l39 .08h.013a6 6 0 0 0 6-6v-46.711h10.05a6 6 0 0 0 4.725-9.7zm14.707 43.04a6 6 0 0 0 -6 6v46.695l-27-.054v-46.721a6 6 0 0 0 -6-6h-.031l-3.526.018 23.119-29.544 23.169 29.606z"/><path d="m114.706 461.3a6 6 0 0 0 -6 6v5.682a6 6 0 0 0 12 0v-5.682a6 6 0 0 0 -6-6z"/><path d="m75.374 481.081a6 6 0 0 0 -6 6v5.682a6 6 0 0 0 12 0v-5.682a6 6 0 0 0 -6-6z"/><path d="m114.706 481.081a6 6 0 0 0 -6 6v5.682a6 6 0 0 0 12 0v-5.682a6 6 0 0 0 -6-6z"/><path d="m139.316 353.074a6 6 0 0 0 -6 6v5.682a6 6 0 0 0 12 0v-5.682a6 6 0 0 0 -6-6z"/><path d="m118.149 294.079a6 6 0 0 0 5.388 3.359h.03l9.889-.049v46.677a6 6 0 0 0 5.987 6l39 .08h.012a6 6 0 0 0 6-6v-46.708h10.045a6 6 0 0 0 4.726-9.7l-35.481-45.338a6 6 0 0 0 -9.451 0l-35.483 45.34a6 6 0 0 0 -.662 6.339zm40.871-38.247 23.168 29.606h-3.737a6 6 0 0 0 -6 6v46.7l-27-.055v-46.725a6 6 0 0 0 -6-6h-.03l-3.527.018z"/><path d="m184.648 359.074a6 6 0 0 0 -12 0v5.682a6 6 0 0 0 12 0z"/><path d="m139.316 372.859a6 6 0 0 0 -6 6v5.682a6 6 0 0 0 12 0v-5.682a6 6 0 0 0 -6-6z"/><path d="m178.648 372.859a6 6 0 0 0 -6 6v5.682a6 6 0 0 0 12 0v-5.682a6 6 0 0 0 -6-6z"/><path d="m450.962 461.3a6 6 0 0 0 -6 6v5.682a6 6 0 0 0 12 0v-5.682a6 6 0 0 0 -6-6z"/><path d="m435.984 350.619a6 6 0 0 0 -9.451 0l-35.482 45.343a6 6 0 0 0 4.725 9.7h10.05v46.708a6 6 0 0 0 6 6h.013l39-.08a6 6 0 0 0 5.987-6v-46.681l9.889.05h.03a6 6 0 0 0 4.726-9.7zm14.868 42.96h-.031a6 6 0 0 0 -6 6v46.721l-27 .054v-46.695a6 6 0 0 0 -6-6h-3.731l23.169-29.606 23.119 29.547z"/><path d="m411.63 461.3a6 6 0 0 0 -6 6v5.682a6 6 0 0 0 12 0v-5.682a6 6 0 0 0 -6-6z"/><path d="m450.962 481.081a6 6 0 0 0 -6 6v5.682a6 6 0 0 0 12 0v-5.682a6 6 0 0 0 -6-6z"/><path d="m411.63 481.081a6 6 0 0 0 -6 6v5.682a6 6 0 1 0 12 0v-5.682a6 6 0 0 0 -6-6z"/><path d="m387.02 353.074a6 6 0 0 0 -6 6v5.682a6 6 0 0 0 12 0v-5.682a6 6 0 0 0 -6-6z"/><path d="m326.441 294.065a6 6 0 0 0 5.394 3.373h10.05v46.708a6 6 0 0 0 6 6h.012l39-.08a6 6 0 0 0 5.987-6v-46.677l9.889.049h.03a6 6 0 0 0 4.725-9.7l-35.486-45.338a6 6 0 0 0 -9.451 0l-35.482 45.34a6 6 0 0 0 -.668 6.325zm40.875-38.233 23.12 29.544-3.526-.018h-.03a6 6 0 0 0 -6 6v46.721l-27 .055v-46.7a6 6 0 0 0 -6-6h-3.737z"/><path d="m353.688 359.074a6 6 0 1 0 -12 0v5.682a6 6 0 0 0 12 0z"/><path d="m393.02 384.541v-5.682a6 6 0 1 0 -12 0v5.682a6 6 0 0 0 12 0z"/><path d="m347.688 372.859a6 6 0 0 0 -6 6v5.682a6 6 0 1 0 12 0v-5.682a6 6 0 0 0 -6-6z"/><path d="m150.974 160.693a6 6 0 1 0 12 0v-55.06a6 6 0 1 0 -12 0z"/><path d="m156.974 91.555a6 6 0 0 0 6-6v-8.439a6 6 0 1 0 -12 0v8.439a6 6 0 0 0 6 6z"/><path d="m123 210.683v-55.061a6 6 0 0 0 -12 0v55.061a6 6 0 0 0 12 0z"/><path d="m117 121.105a6 6 0 0 0 -6 6v8.439a6 6 0 0 0 12 0v-8.439a6 6 0 0 0 -6-6z"/><path d="m360.817 160.693a6 6 0 0 0 12 0v-55.06a6 6 0 1 0 -12 0z"/><path d="m366.817 91.555a6 6 0 0 0 6-6v-8.439a6 6 0 1 0 -12 0v8.439a6 6 0 0 0 6 6z"/><path d="m400.788 210.683a6 6 0 0 0 12 0v-55.061a6 6 0 0 0 -12 0z"/><path d="m406.788 141.544a6 6 0 0 0 6-6v-8.439a6 6 0 0 0 -12 0v8.439a6 6 0 0 0 6 6z"/><path d="m61.472 261.305 1.708-7.392a6 6 0 0 0 -11.692-2.7l-1.708 7.387a6 6 0 1 0 11.692 2.7z"/><path d="m55.381 287.665 1.708-7.392a6 6 0 0 0 -11.692-2.7l-1.707 7.392a6 6 0 1 0 11.691 2.7z"/><path d="m57.374 270.29a6 6 0 0 0 4.6 7.133l7.64 1.652a6 6 0 1 0 2.537-11.728l-7.64-1.653a6 6 0 0 0 -7.137 4.596z"/><path d="m49.5 268.587a6 6 0 0 0 -4.6-7.133l-7.64-1.652a6 6 0 1 0 -2.537 11.728l7.64 1.653a6.063 6.063 0 0 0 1.275.136 6 6 0 0 0 5.862-4.732z"/><path d="m455.833 43.475a6 6 0 0 0 5.425-8.557l-3.231-6.864a6 6 0 1 0 -10.857 5.11l3.23 6.864a6 6 0 0 0 5.433 3.447z"/><path d="m469.547 52.532a6 6 0 1 0 -10.857 5.11l3.23 6.864a6 6 0 1 0 10.857-5.11z"/><path d="m473.375 33.052-7.023 3.433a6 6 0 1 0 5.269 10.781l7.024-3.433a6 6 0 0 0 -5.27-10.781z"/><path d="m438.547 56.752a5.995 5.995 0 0 0 8.025 2.756l7.025-3.433a6 6 0 1 0 -5.27-10.781l-7.027 3.433a6 6 0 0 0 -2.753 8.025z"/><path d="m89.189 53.037a7.859 7.859 0 1 0 7.858 7.863 7.867 7.867 0 0 0 -7.858-7.863z"/><path d="m443.925 268.712a7.859 7.859 0 1 0 -7.859-7.859 7.868 7.868 0 0 0 7.859 7.859z"/><path d="m177.9 231.362 1.256 4.832a8.281 8.281 0 0 0 13.889 3.744c5.319-5.346 20.081-16.389 34.963-22.4l2.446 10.729a16.12 16.12 0 0 0 15.795 12.6h35.951a16.119 16.119 0 0 0 15.8-12.598l2.826-12.392a108.031 108.031 0 0 1 28.961 15.084 12.98 12.98 0 0 0 20.5-7.292c3.352-13.972.72-28.977-7.41-42.249a61.158 61.158 0 0 0 -28.583-24.61l1.929-8.456c.773-2.509 5.453-19.059 2.611-43.536-2.757-23.746-13.445-59.948-48.7-97.559a7.146 7.146 0 0 0 -10.424 0c-35.238 37.587-46.306 73.758-49.385 97.483-3.2 24.659 1.238 41.269 1.9 43.566l2.253 9.88c-28.128 11.576-44.361 43.212-36.578 73.174zm160.711-10.491a.933.933 0 0 1 -.626.7.922.922 0 0 1 -.924-.147c-9.019-6.883-21.251-13.162-33.559-17.314l8.075-35.412c19.566 8.964 31.914 31.846 27.038 52.173zm-73.7-201.538a188.618 188.618 0 0 1 24.08 33.411 32.353 32.353 0 0 1 -24.531 10.768 31.766 31.766 0 0 1 -23.769-10.741 192.96 192.96 0 0 1 24.222-33.438zm-42.605 86.282a142.942 142.942 0 0 1 12.594-41.656 43.757 43.757 0 0 0 29.565 11.553 44.715 44.715 0 0 0 30.273-11.512 139.19 139.19 0 0 1 12.094 41.541c2.868 23.615-2.061 39.228-2.106 39.366q-.089.27-.152.546l-18.274 80.147a4.182 4.182 0 0 1 -4.1 3.27h-35.947a4.182 4.182 0 0 1 -4.1-3.27l-18.273-80.151c-.03-.135-.071-.286-.111-.42-.047-.155-4.654-15.778-1.461-39.414zm-5.117 64.477 8.125 35.628c-13.645 5.205-27.594 14.421-36.075 21.5a51.133 51.133 0 0 1 27.95-57.129z"/><path d="m288.38 248.33v-.005a6.969 6.969 0 0 0 -13.332.132c-.9 3.062-4.3 12.992-9.958 12.419-6.293-.65-9.3-8.906-10.3-12.419a6.97 6.97 0 0 0 -13.2-.637c-6.311 16.136-4.9 38.2 18 51.749a8.611 8.611 0 0 0 4.385 1.2 8.471 8.471 0 0 0 4.377-1.215c28.187-17.005 22.456-43.507 20.028-51.224zm-24.439 39.817c-10.336-6.788-13.4-15.29-13.615-22.628a20.594 20.594 0 0 0 13.53 7.293 17.11 17.11 0 0 0 14.334-5.419c-1.112 6.86-4.847 14.482-14.249 20.754z"/><path d="m264.454 146.453a30.823 30.823 0 1 0 -30.808-30.823 30.852 30.852 0 0 0 30.808 30.823zm0-49.645a18.823 18.823 0 1 1 -18.808 18.822 18.838 18.838 0 0 1 18.808-18.822z"/><path d="m253.605 197.905a6 6 0 1 0 -11.714 2.6l1.831 8.257a6 6 0 1 0 11.714-2.6z"/><path d="m238.729 186.246a6 6 0 0 0 11.714-2.6l-6.31-28.45a6 6 0 0 0 -11.715 2.6z"/><path d="m210.611 432.478a27.082 27.082 0 0 0 -26.511 21.744 26.434 26.434 0 0 0 2.162 52.778 6 6 0 0 0 0-12 14.434 14.434 0 1 1 2.377-28.647 6 6 0 0 0 6.979-6.188c-.007-.157-.017-.313-.027-.47l-.013-.173a15.034 15.034 0 1 1 30.067 0 6 6 0 0 0 12 0 27.069 27.069 0 0 0 -27.034-27.044z"/><path d="m340.29 454.222a27.034 27.034 0 0 0 -53.545 5.3 6 6 0 1 0 12 0 15.033 15.033 0 0 1 30.066-.035l-.011.193c-.012.168-.022.335-.029.5a6 6 0 0 0 6.98 6.169 14.422 14.422 0 1 1 2.377 28.651 6 6 0 1 0 0 12 26.434 26.434 0 0 0 2.162-52.778z"/><path d="m246.372 306.943a6 6 0 0 0 -6 6v13.367a6 6 0 0 0 12 0v-13.367a6 6 0 0 0 -6-6z"/><path d="m246.372 338.146a6 6 0 0 0 -6 6v89.1a6 6 0 0 0 12 0v-89.1a6 6 0 0 0 -6-6z"/><path d="m279.348 410.2a6 6 0 0 0 -6 6v17.047a6 6 0 0 0 12 0v-17.047a6 6 0 0 0 -6-6z"/><path d="m279.348 306.943a6 6 0 0 0 -6 6v84.631a6 6 0 0 0 12 0v-84.631a6 6 0 0 0 -6-6z"/><path d="m210.4 342.936v71.645a6 6 0 0 0 12 0v-71.645a6 6 0 0 0 -12 0z"/><path d="m300.327 342.936v71.645a6 6 0 0 0 12 0v-71.645a6 6 0 1 0 -12 0z"/></g></svg>